<?xml version="1.0" standalone="no"?>
<!DOCTYPE svg PUBLIC "-//W3C//DTD SVG 20010904//EN"
 "http://www.w3.org/TR/2001/REC-SVG-20010904/DTD/svg10.dtd">
<svg version="1.0" xmlns="http://www.w3.org/2000/svg"
 width="500.000000pt" height="500.000000pt" viewBox="0 0 500.000000 500.000000"
 preserveAspectRatio="xMidYMid meet">
<metadata>
Created by potrace 1.14, written by Peter Selinger 2001-2017
</metadata>
<g transform="translate(0.000000,500.000000) scale(0.100000,-0.100000)"
fill="#000000" stroke="none">
<path d="M2379 4347 c-51 -27 -150 -84 -614 -352 -376 -217 -433 -250 -494
-285 -67 -38 -101 -82 -101 -130 0 -33 32 -84 67 -107 26 -17 89 -18 1273 -18
1184 0 1247 1 1273 18 34 22 67 74 67 105 0 13 -7 39 -16 58 -18 37 -37 48
-579 334 -148 78 -335 177 -415 220 -375 201 -376 201 -461 157z"/>
<path d="M1631 3364 c-246 -66 -391 -252 -379 -483 6 -108 35 -184 93 -249
l44 -49 -49 -42 c-103 -87 -150 -192 -150 -336 0 -194 100 -347 282 -430 109
-50 160 -55 583 -54 l390 0 -50 23 c-175 80 -190 288 -28 383 123 72 290 1
323 -138 25 -104 -24 -194 -135 -245 l-50 -23 135 0 c117 -1 139 2 167 19 58
35 58 31 63 459 l5 395 171 -230 c94 -126 236 -317 316 -425 104 -140 154
-199 176 -208 20 -9 65 -12 127 -9 l97 3 34 37 34 38 0 751 0 751 -39 39 -39
39 -121 0 -121 0 -36 -32 c-20 -19 -38 -48 -43 -68 -4 -19 -7 -198 -7 -398 1
-199 -2 -362 -6 -362 -4 0 -82 100 -173 223 -497 669 -470 637 -529 637 -32 0
-32 2 -46 -235 -30 -499 -49 -716 -67 -745 -47 -79 -209 -81 -255 -2 -11 19
-19 77 -27 192 -6 91 -14 183 -16 205 -2 22 -11 153 -20 290 -9 138 -18 260
-21 273 l-4 22 -288 -1 c-218 0 -300 -4 -341 -15z m440 -361 c3 -54 4 -250 1
-259 -2 -8 -48 -11 -150 -10 -128 1 -152 4 -182 22 -76 44 -102 132 -59 200
11 19 21 34 22 34 1 0 20 7 42 15 27 10 85 14 183 15 128 0 142 -2 143 -17z
m0 -625 c4 -49 3 -282 -1 -288 -3 -5 -86 -7 -185 -6 -191 3 -217 8 -260 56
-16 18 -20 36 -20 96 0 66 3 76 26 99 45 45 89 54 272 55 127 0 167 -3 168
-12z"/>
<path d="M1342 1468 c-8 -8 -12 -64 -12 -188 0 -124 4 -180 12 -188 8 -8 48
-12 113 -12 108 0 151 15 176 61 19 36 15 97 -9 122 -18 20 -19 24 -6 41 34
47 8 133 -50 160 -42 20 -205 23 -224 4z"/>
<path d="M1682 1468 c-8 -8 -12 -55 -12 -147 0 -163 11 -193 80 -229 56 -29
145 -27 188 4 52 39 62 75 62 225 0 92 -4 139 -12 147 -20 20 -76 15 -88 -7
-5 -11 -10 -76 -10 -145 0 -114 -2 -126 -19 -136 -28 -14 -57 -12 -75 6 -13
12 -16 40 -16 143 0 139 -4 151 -55 151 -17 0 -36 -5 -43 -12z"/>
<path d="M2054 1363 c3 -64 11 -122 17 -130 16 -19 66 -17 73 4 4 9 10 68 13
130 l6 113 -58 0 -58 0 7 -117z"/>
<path d="M2224 1468 c-11 -18 -13 -349 -2 -370 7 -16 24 -18 118 -18 119 0
132 6 123 60 -5 33 -19 40 -85 40 l-58 0 0 138 c0 94 -4 142 -12 150 -16 16
-75 15 -84 0z"/>
<path d="M2502 1468 c-19 -19 -17 -362 3 -378 10 -8 48 -11 123 -8 96 3 113 6
144 28 45 30 85 90 93 140 14 82 -39 174 -120 211 -48 22 -223 27 -243 7z
m229 -117 c23 -23 29 -38 29 -71 0 -33 -6 -48 -29 -71 -25 -24 -37 -29 -80
-29 l-51 0 0 100 0 100 51 0 c43 0 55 -5 80 -29z"/>
<path d="M3202 1461 c-9 -25 -7 -355 2 -370 10 -15 69 -14 84 1 8 8 12 64 12
188 0 124 -4 180 -12 188 -20 20 -78 15 -86 -7z"/>
<path d="M3370 1470 c-12 -7 -15 -40 -16 -182 0 -95 4 -181 8 -191 7 -14 19
-17 51 -15 l42 3 5 92 5 93 70 -93 c55 -72 76 -93 98 -95 54 -6 57 4 57 197 0
124 -4 181 -12 189 -16 16 -73 15 -86 -1 -6 -7 -12 -50 -14 -95 l-3 -82 -70
95 c-56 77 -74 95 -95 95 -14 0 -32 -5 -40 -10z"/>
<path d="M2907 1294 c-10 -10 -9 -66 1 -82 6 -9 37 -12 118 -10 l109 3 0 45 0
45 -111 3 c-60 1 -113 -1 -117 -4z"/>
<path d="M2068 1177 c-9 -7 -19 -24 -23 -38 -8 -31 26 -69 60 -69 30 0 65 32
65 60 0 46 -64 75 -102 47z"/>
</g>
</svg>
